<svg width="151" height="68" viewBox="0 0 151 68" fill="none" xmlns="http://www.w3.org/2000/svg">
<g id="Layer 2">
<g id="Group">
<path id="Vector" d="M137.771 3.29684H13.2295C7.5799 3.29684 3 7.87673 3 13.5263V55.2037C3 60.8533 7.5799 65.4332 13.2295 65.4332H137.771C143.42 65.4332 148 60.8533 148 55.2037V13.5263C148 7.87673 143.42 3.29684 137.771 3.29684Z" fill="white" stroke="#001F45" stroke-width="5" stroke-miterlimit="10"/>
<g id="Group_2">
<g id="Group_3">
<path id="Vector_2" d="M12.6805 5.52023H37.4612C36.7902 5.52023 36.1192 5.74897 35.5702 6.20341L35.1615 6.54196L21.812 17.6468V10.879H13.2783V24.7409L4.79639 31.7985V13.4043C4.79639 9.049 8.32821 5.52023 12.6805 5.52023Z" fill="#001F45"/>
<path id="Vector_3" d="M44.8821 41.174H30.2241V63.2097H44.8821V41.174Z" fill="#001F45"/>
<path id="Vector_4" d="M146.201 13.4043V55.3257C146.201 59.6779 142.672 63.2097 138.316 63.2097H63.5534V33.662C63.5534 33.1892 63.3429 32.7439 62.98 32.442L38.9374 12.4344C38.1322 11.7665 36.9671 11.7665 36.165 12.4344L12.1223 32.442C11.7594 32.7439 11.5489 33.1892 11.5489 33.662V63.1274C7.73347 62.5815 4.79639 59.2936 4.79639 55.3257V35.1625C5.13188 35.1686 5.47347 35.0558 5.75407 34.824L17.0693 25.415L21.812 21.4683L35.2683 10.2781C36.5371 9.22285 38.3823 9.22285 39.651 10.2781L69.1653 34.824C69.7905 35.3425 70.7146 35.2571 71.2331 34.6319H71.2362C71.7547 34.0097 71.6693 33.0825 71.044 32.564L39.7608 6.54196L39.3521 6.20341C38.8062 5.74897 38.1352 5.52023 37.4612 5.52023H138.316C142.672 5.52023 146.201 9.049 146.201 13.4043Z" fill="#001F45"/>
</g>
<path id="Vector_5" d="M72.371 31.2586L41.5239 5.52023H138.317C142.672 5.52023 146.201 9.049 146.201 13.4043V55.3257C146.201 59.681 142.672 63.2097 138.317 63.2097H65.3378L65.2036 34.2384L68.0584 36.4862C70.5441 38.1088 73.8868 36.0623 73.414 33.1343C73.3988 33.0489 73.3835 32.9635 73.3622 32.8781C73.2158 32.2438 72.8651 31.6765 72.3649 31.2617L72.371 31.2586Z" fill="#D1003A"/>
<g id="Group_4">
<g id="Group_5">
<path id="Vector_6" d="M86.8549 12.0715L83.2621 22.243H83.2041L79.8156 12.0715H75.686V25.3722H78.3974V19.187C78.3974 18.4763 78.3334 17.0612 78.2114 14.9354H78.2998L81.7463 25.3692H84.5278L88.2182 14.9537H88.3067C88.2274 16.6281 88.1847 17.659 88.1755 18.0463C88.1633 18.4367 88.1603 18.7783 88.1603 19.0741V25.3692H90.9876V12.0715H86.8579H86.8549Z" fill="white"/>
<path id="Vector_7" d="M101.55 12.0196H97.8413L92.7876 25.3722H96.0571L97.0941 22.2064H102.313L103.35 25.3722H106.619L101.547 12.0196H101.55ZM97.8596 19.8427C98.8753 16.7806 99.4944 14.8622 99.7079 14.0875C99.7628 14.304 99.8482 14.5999 99.9671 14.975C100.089 15.3532 100.629 16.9727 101.587 19.8427H97.8566H97.8596Z" fill="white"/>
<path id="Vector_8" d="M108.424 12.0715V24.5366C108.424 25.3539 108.281 25.9548 107.994 26.3421C107.707 26.7264 107.232 26.9186 106.564 26.9186C106.137 26.9186 105.658 26.8576 105.136 26.7356V29.081C105.643 29.2121 106.24 29.2792 106.93 29.2792C108.424 29.2792 109.553 28.8736 110.315 28.0592C111.077 27.2449 111.462 26.0646 111.462 24.5122V12.0715H108.427H108.424Z" fill="white"/>
<path id="Vector_9" d="M126.303 13.63C125.138 12.4558 123.454 11.8671 121.258 11.8671C119.062 11.8671 117.37 12.4497 116.189 13.6178C115.012 14.7859 114.423 16.4786 114.423 18.6898C114.423 20.901 115.012 22.5999 116.186 23.7832C117.36 24.9666 119.044 25.5583 121.237 25.5583C123.43 25.5583 125.113 24.9666 126.288 23.7832C127.465 22.5999 128.05 20.9102 128.05 18.7081C128.05 16.5061 127.468 14.8073 126.303 13.63ZM121.237 23.1885C120.029 23.1885 119.12 22.8133 118.516 22.06C117.909 21.3097 117.604 20.1904 117.604 18.7051C117.604 17.2198 117.912 16.0974 118.526 15.3441C119.142 14.5907 120.05 14.2125 121.258 14.2125C123.665 14.2125 124.869 15.7101 124.869 18.7051C124.869 21.7001 123.659 23.1885 121.237 23.1885Z" fill="white"/>
<path id="Vector_10" d="M138.243 19.5774C139.091 19.2327 139.747 18.7569 140.211 18.1439C140.674 17.537 140.906 16.8416 140.906 16.0577C140.906 14.7188 140.442 13.7154 139.506 13.0566C138.573 12.4009 137.133 12.0684 135.19 12.0684H131.018V25.3692H134.053V20.2667H135.669L139.085 25.3692H142.452C141.8 24.4969 140.397 22.5663 138.243 19.5743V19.5774ZM137.158 17.5309C136.7 17.8267 135.993 17.9762 135.035 17.9762H134.053V14.3833H134.974C135.956 14.3833 136.676 14.5145 137.142 14.7829C137.606 15.0513 137.844 15.4996 137.844 16.1309C137.844 16.7623 137.615 17.232 137.158 17.5309Z" fill="white"/>
</g>
<g id="Group_6">
<path id="Vector_11" d="M78.4127 38.917V29.0596H75.686V41.0123H83.6311V38.917H78.4127Z" fill="white"/>
<path id="Vector_12" d="M93.2696 31.1366V29.0596H85.8613V41.0123H93.2696V38.917H88.591V35.8366H92.9463V33.7626H88.591V31.1397H93.2696V31.1366Z" fill="white"/>
<path id="Vector_13" d="M102.209 29.0108H98.8752L94.3369 41.0093H97.277L98.2103 38.1637H102.895L103.828 41.0093H106.768L102.212 29.0108H102.209ZM98.8905 36.0409C99.8054 33.2899 100.361 31.5667 100.553 30.8682C100.601 31.0634 100.678 31.3318 100.784 31.6673C100.894 32.0058 101.379 33.4637 102.242 36.0409H98.8905Z" fill="white"/>
<path id="Vector_14" d="M113.268 34.2994V36.4069H115.702V38.9017C115.116 39.0085 114.537 39.0634 113.969 39.0634C112.878 39.0634 112.048 38.7218 111.475 38.0386C110.904 37.3554 110.618 36.3642 110.618 35.068C110.618 33.7718 110.974 32.8354 111.682 32.1004C112.39 31.3654 113.335 30.9963 114.515 30.9963C115.528 30.9963 116.507 31.2159 117.446 31.6521L118.352 29.6238C117.126 29.1328 115.854 28.8858 114.534 28.8858C112.426 28.8858 110.779 29.4256 109.593 30.5022C108.403 31.5819 107.809 33.0886 107.809 35.0161C107.809 36.9437 108.321 38.5205 109.346 39.5788C110.367 40.6372 111.85 41.1678 113.793 41.1678C114.552 41.1678 115.302 41.116 116.031 41.0153C116.76 40.9147 117.541 40.7378 118.367 40.4877V34.2933H113.265L113.268 34.2994Z" fill="white"/>
<path id="Vector_15" d="M129.179 29.0596V36.3612C129.179 37.2853 128.978 37.9685 128.575 38.3985C128.173 38.8316 127.529 39.0481 126.636 39.0481C125.742 39.0481 125.056 38.8316 124.656 38.4046C124.257 37.9715 124.058 37.2975 124.058 36.3764V29.0596H121.341V36.7607C121.341 38.1301 121.798 39.2067 122.713 39.9936C123.628 40.7805 124.912 41.1739 126.565 41.1739C127.66 41.1739 128.612 40.9971 129.414 40.6433C130.219 40.2864 130.832 39.7771 131.256 39.1122C131.68 38.4473 131.897 37.6726 131.897 36.7912V29.0596H129.179Z" fill="white"/>
<path id="Vector_16" d="M142.453 31.1366V29.0596H135.044V41.0123H142.453V38.917H137.774V35.8366H142.129V33.7626H137.774V31.1397H142.453V31.1366Z" fill="white"/>
</g>
<g id="Group_7">
<path id="Vector_17" d="M84.7262 51.3607C84.3632 50.8941 83.7715 50.58 82.9511 50.4061V50.3238C83.555 50.2323 84.0338 49.9547 84.3968 49.4942C84.7597 49.0337 84.9397 48.445 84.9397 47.7283C84.9397 46.6699 84.5249 45.9014 83.6983 45.4164C82.8688 44.9315 81.542 44.6905 79.706 44.6905H75.6831V56.6981H80.5203C81.9812 56.6981 83.1371 56.3931 83.9911 55.7771C84.8421 55.164 85.266 54.31 85.266 53.2151C85.266 52.4435 85.0861 51.8243 84.7231 51.3577L84.7262 51.3607ZM78.425 46.7767H79.8676C80.6514 46.7767 81.2248 46.8773 81.5878 47.0756C81.9507 47.2738 82.1307 47.6063 82.1307 48.0638C82.1307 48.5579 81.966 48.9117 81.6305 49.1221C81.298 49.3356 80.7612 49.4423 80.0201 49.4423H78.428V46.7736L78.425 46.7767ZM81.8836 54.1972C81.5237 54.4625 80.9656 54.5967 80.2123 54.5967H78.425V51.4675H80.1238C81.6579 51.4675 82.4235 51.9677 82.4235 52.962C82.4235 53.514 82.2435 53.9257 81.8836 54.1941V54.1972Z" fill="white"/>
<path id="Vector_18" d="M95.6362 44.6905V52.0256C95.6362 52.9559 95.4349 53.6391 95.0323 54.0752C94.6266 54.5083 93.98 54.7279 93.0834 54.7279C92.1867 54.7279 91.4943 54.5113 91.0948 54.0813C90.6922 53.6482 90.4909 52.9681 90.4909 52.0439V44.6936H87.7612V52.4313C87.7612 53.8038 88.2187 54.8865 89.1398 55.6764C90.0609 56.4694 91.351 56.8659 93.0102 56.8659C94.1112 56.8659 95.0689 56.6859 95.8771 56.3291C96.6823 55.9723 97.3014 55.4629 97.7254 54.795C98.1524 54.124 98.3689 53.3493 98.3689 52.4587V44.6905H95.6362Z" fill="white"/>
<path id="Vector_19" d="M108.25 44.6905L105.557 49.6345L102.876 44.6905H99.9058L104.194 52.108V56.6981H106.918V52.0256L111.206 44.6905H108.25Z" fill="white"/>
<path id="Vector_20" d="M120.273 46.7767V44.6905H112.832V56.6981H120.273V54.5967H115.573V51.501H119.95V49.4149H115.573V46.7767H120.273Z" fill="white"/>
<path id="Vector_21" d="M129.494 51.4675C130.259 51.1564 130.851 50.7233 131.272 50.1743C131.693 49.6223 131.9 48.994 131.9 48.2864C131.9 47.0786 131.476 46.1759 130.634 45.5811C129.792 44.9864 128.493 44.6905 126.736 44.6905H122.97V56.6981H125.709V52.0927H127.169L130.253 56.6981H133.294C132.705 55.9113 131.439 54.1667 129.49 51.4675H129.494ZM128.515 49.6192C128.1 49.8876 127.462 50.0188 126.596 50.0188H125.712V46.7736H126.544C127.429 46.7736 128.081 46.8956 128.502 47.1366C128.923 47.3775 129.134 47.7832 129.134 48.3535C129.134 48.9239 128.929 49.3478 128.515 49.6192Z" fill="white"/>
<path id="Vector_22" d="M141.879 51.3821C141.431 50.8453 140.604 50.3055 139.393 49.7687C138.482 49.3631 137.902 49.0825 137.658 48.9239C137.414 48.7683 137.234 48.6067 137.121 48.4389C137.008 48.2742 136.957 48.076 136.957 47.8533C136.957 47.4904 137.097 47.2006 137.371 46.9719C137.649 46.7462 138.048 46.6364 138.567 46.6364C139 46.6364 139.445 46.6883 139.897 46.792C140.345 46.8957 140.915 47.0817 141.608 47.3409L142.492 45.3615C141.824 45.0962 141.19 44.8858 140.577 44.7394C139.967 44.5899 139.326 44.5137 138.655 44.5137C137.289 44.5137 136.218 44.8187 135.441 45.4286C134.666 46.0356 134.279 46.8682 134.279 47.9326C134.279 48.4969 134.398 48.991 134.633 49.4119C134.867 49.8327 135.185 50.2018 135.581 50.519C135.974 50.8362 136.569 51.1686 137.359 51.5133C138.201 51.8823 138.759 52.1568 139.034 52.3276C139.308 52.4953 139.512 52.6722 139.656 52.8583C139.799 53.0413 139.869 53.2517 139.869 53.4866C139.869 53.9075 139.708 54.2247 139.387 54.4412C139.064 54.6547 138.607 54.7614 138.003 54.7614C137.503 54.7614 136.95 54.6852 136.347 54.5388C135.743 54.3893 135.005 54.1362 134.132 53.7733V56.14C135.194 56.6219 136.414 56.8628 137.792 56.8628C139.29 56.8628 140.458 56.5487 141.3 55.9265C142.138 55.3013 142.559 54.4473 142.559 53.3646C142.559 52.5807 142.337 51.9219 141.888 51.3791L141.879 51.3821Z" fill="white"/>
</g>
</g>
</g>
</g>
</g>
</svg>
